<svg width="176" height="188" viewBox="0 0 176 188" fill="none" xmlns="http://www.w3.org/2000/svg">
<g filter="url(#filter0_ddi_157_820)">
<rect x="13" y="21" width="150" height="150" rx="20" fill="url(#paint0_linear_157_820)" fill-opacity="0.3" shape-rendering="crispEdges"/>
</g>
<path d="M93.6 48.475C93.6 48.475 93.8738 55.4977 91.2 58.375C87.309 62.562 81.8299 55.7815 76.8 58.375C74.4 59.6125 72 70.75 64.8 78.175C61.4863 81.5923 58.5137 67.3327 55.2 70.75C50.4 75.7 50.5137 83.2423 55.2 88.075C60 93.025 59.7703 92.5912 64.8 93.025C69.5625 93.4358 72 88.075 76.8 93.025C81.6 97.975 75.497 104.728 81.6 107.875C87.1592 110.741 93.6 107.875 96 115.3C98.2768 122.344 91.2 125.2 84 130.15C79.5885 133.183 74.4 142.525 74.4 142.525M37.3003 84.0076C37.3003 84.0076 48 97.975 55.2 100.45C58.8661 101.71 52.1019 106.43 52.8 110.35C53.9172 116.623 60.1579 115.295 62.4 120.25C65.1745 126.381 62.4 137.575 62.4 137.575M108 53.425C108 53.425 105.6 68.275 112.8 70.75C114.788 71.4335 116.118 69.8032 117.6 68.275C120 65.8 122.4 65.8 122.4 65.8M127.2 73.225C127.2 73.225 123.367 77.2401 122.4 78.175C117.469 82.942 110.721 81.6947 108 88.075C105.332 94.3314 105.922 100.362 110.4 105.4C113.232 108.586 118.183 106.455 120 110.35C122.188 115.041 116.71 117.758 115.2 122.725C114.044 126.528 112.8 135.1 112.8 135.1M132 95.5C132 122.838 110.51 145 84 145C57.4903 145 36 122.838 36 95.5C36 68.1619 57.4903 46 84 46C110.51 46 132 68.1619 132 95.5Z" stroke="white" stroke-width="1.2"/>
<g filter="url(#filter1_d_157_820)">
<path d="M85.0217 145C66.1755 145 49.7565 134.552 41.2565 119.125C22.5041 85.1092 48.3696 43.8162 86.1275 45.026C110.147 45.5136 130.436 63.2294 134.307 86.7879C139.386 117.193 115.91 145 85.0217 145Z" fill="url(#paint1_radial_157_820)"/>
<g opacity="0.75">
<path d="M104.861 103.089C102.79 102.573 102.219 105.153 103.39 105.734C104.562 106.325 107.504 108.088 108.095 106.906C108.685 105.734 107.214 103.68 104.861 103.089Z" fill="#056DB1"/>
<path d="M125.431 81.3314C123.426 81.7909 121.027 82.8038 123.079 84.2762C125.141 85.7486 128.365 85.1577 128.665 83.3946C128.955 81.6221 129.255 80.4498 125.431 81.3314Z" fill="#056DB1"/>
<path d="M85.1718 128.674C80.8609 126.086 74.5913 125.148 74.0009 127.793C73.4105 130.437 77.5246 134.554 82.5196 133.964C87.524 133.382 88.1145 130.437 85.1718 128.674Z" fill="#056DB1"/>
<path d="M99.2291 142.947C95.3399 144.101 91.2539 144.795 87.0273 144.954C87.9926 138.83 93.8123 140.762 96.9237 141.606C97.8327 141.859 98.5919 142.356 99.2291 142.947Z" fill="#056DB1"/>
<path d="M57.8442 128.383C59.7466 129.218 61.0774 125.147 58.4346 121.621C55.7918 118.095 54.611 113.678 51.3778 112.796C48.1446 111.915 46.3828 123.384 57.8442 128.383Z" fill="#056DB1"/>
<path d="M44.9116 113.967C43.8714 114.155 43.4403 116.321 45.7925 116.612C48.1448 116.912 48.1448 113.386 44.9116 113.967Z" fill="#056DB1"/>
<path d="M71.0676 101.916C68.9965 101.728 66.9535 102.797 67.244 105.151C67.5345 107.505 70.7677 105.151 72.239 105.151C73.7104 105.151 74.3008 102.206 71.0676 101.916Z" fill="#056DB1"/>
<path d="M91.348 74.5693C89.5674 73.7253 89.2863 77.5142 90.7576 78.0956C92.2289 78.6865 96.3431 76.9139 91.348 74.5693Z" fill="#056DB1"/>
</g>
<path d="M72.5388 93.6829C62.5487 95.446 61.0774 95.7368 51.9682 103.39C45.9423 108.444 39.654 106.813 36.0928 105.125C35.4274 101.861 35.0713 98.4753 35.0713 95.0052C35.0713 80.7876 41.0035 67.9486 50.525 58.8516C52.4837 60.0145 54.5079 61.5901 56.0823 63.6908C60.487 69.5711 59.606 71.925 72.5388 78.6868C85.4621 85.4487 82.5288 91.9198 72.5388 93.6829Z" fill="url(#paint2_linear_157_820)"/>
<path d="M130.174 73.5834C120.952 71.6515 114.664 82.0897 108.385 81.33C101.038 80.4484 103.099 69.5695 96.9234 58.0997C93.8308 52.3602 93.6152 48.3837 94.1681 45.8516C110.128 48.7964 123.417 59.3377 130.174 73.5834Z" fill="url(#paint3_linear_157_820)"/>
<path d="M134.981 95.0041C134.981 114.408 123.942 131.223 107.804 139.514C104.121 133.69 110.09 129.366 117.203 124.855C126.022 119.266 117.794 116.912 119.256 107.796C120.727 98.6804 115.142 98.0895 117.784 90.4462C119.668 84.9879 129.489 90.1648 134.953 93.5785C134.972 94.0475 134.981 94.5258 134.981 95.0041Z" fill="url(#paint4_linear_157_820)"/>
<path d="M88.1142 110.15C82.7724 111.81 79.886 105.442 73.1291 106.914C66.3722 108.387 60.7868 120.438 69.8959 120.147C79.0051 119.856 81.3573 118.675 88.1142 123.383C94.8711 128.091 102.809 124.855 105.161 117.502C107.504 110.15 106.033 104.56 88.1142 110.15Z" fill="url(#paint5_linear_157_820)"/>
<path d="M99.2759 88.0912C96.4644 88.9915 95.7522 90.4452 96.6331 92.2083C97.514 93.9715 101.038 93.6807 102.8 96.3254C104.561 98.9702 108.975 102.206 110.147 96.3254C111.328 90.4452 105.742 86.028 99.2759 88.0912Z" fill="url(#paint6_linear_157_820)"/>
<path opacity="0.5" d="M88.995 72.797C88.4702 76.7171 84.8808 72.797 79.0049 71.6247C73.1289 70.4524 70.7767 66.9167 73.4194 64.5628C76.0622 62.2088 79.5859 60.4457 83.119 62.4995C86.6427 64.5628 89.576 68.3891 88.995 72.797Z" fill="#056DB1"/>
<path d="M82.8194 49.5657C75.4721 49.5657 71.9484 53.6828 65.1915 56.0368C61.1617 57.4342 57.9754 55.8117 56.0542 54.2736C64.2262 48.4403 74.2257 45.0078 85.0311 45.0078C85.4059 45.0078 85.7714 45.0078 86.1369 45.0266C86.6523 47.1461 86.4649 49.5657 82.8194 49.5657Z" fill="url(#paint7_linear_157_820)"/>
<path opacity="0.45" d="M132.601 110.3C128.524 123.007 119.5 133.502 107.804 139.513C105.077 140.911 102.209 142.064 99.229 142.955C95.3398 144.109 91.2537 144.803 87.0272 144.962C86.3618 144.99 85.6964 145 85.0217 145C66.1755 145 49.7565 134.552 41.2565 119.125C38.8761 114.811 37.1143 110.103 36.0928 105.123C35.4274 101.859 35.0713 98.4735 35.0713 95.0035C35.0713 88.9638 36.1397 83.1773 38.0983 77.8223C43.7494 94.7127 56.6821 116.508 86.0807 120.55C91.8161 121.338 97.1766 121.441 102.181 121.01C114.458 119.931 124.56 115.636 132.601 110.3Z" fill="url(#paint8_linear_157_820)"/>
<path opacity="0.45" d="M134.981 95.0039C134.981 100.34 134.147 105.48 132.601 110.3C128.524 123.008 119.499 133.502 107.804 139.514C105.077 140.911 102.209 142.065 99.2288 142.956C95.3396 144.109 91.2536 144.803 87.027 144.963C86.3616 144.991 85.6963 145 85.0215 145C66.1753 145 49.7563 134.553 41.2563 119.125C49.8969 122.68 60.1869 125.109 72.3886 125.587C84.2249 126.056 94.0463 124.227 102.181 121.001C119.668 114.08 129.415 100.687 134.7 89.6582C134.841 90.943 134.925 92.256 134.963 93.569C134.972 94.0473 134.981 94.5256 134.981 95.0039Z" fill="url(#paint9_linear_157_820)"/>
<path d="M134.316 86.8175C134.316 86.8175 127.203 60.7456 94.4963 52.1644C74.891 47.0156 61.2835 51.6579 53.5332 56.1971C78.2835 35.9773 116.135 44.0052 130.174 73.5846C133.435 80.4402 134.082 85.8609 134.316 86.8175Z" fill="url(#paint10_linear_157_820)"/>
</g>
<g filter="url(#filter2_f_157_820)">
<ellipse cx="87.9934" cy="59.6543" rx="8.36966" ry="5.6884" transform="rotate(6.91194 87.9934 59.6543)" fill="#F9FAFF"/>
</g>
<path d="M117.038 15.0938C116.018 15.0938 115.154 15.8805 115.154 16.8104V26.4664C115.154 27.3962 116.018 28.183 117.038 28.183C118.059 28.183 118.923 27.3962 118.923 26.4664V16.8104C119.002 15.8805 118.138 15.0938 117.038 15.0938Z" fill="#991427"/>
<path d="M142.638 0H91.4391C87.9054 0 85 2.57494 85 5.86513V56.7917C85 58.7229 87.4343 59.7242 89.0833 58.5083C89.0833 58.5083 97.7997 51.9994 100.627 49.7106C101.883 48.7092 102.668 47.994 105.966 47.994C109.5 47.994 119.944 47.994 119.944 47.994H142.559C146.093 47.994 148.998 45.419 148.998 42.1288V5.86513C149.077 2.64646 146.172 0 142.638 0ZM128.974 35.62H105.103C103.139 35.62 101.883 34.6901 101.883 33.1881C101.883 32.6159 102.04 31.9721 102.433 31.3999L114.369 11.7303C115.075 10.5859 115.939 10.0136 116.96 10.0136C117.981 10.0136 118.923 10.6574 119.551 11.7303L131.487 31.3999C131.88 32.0437 132.037 32.6159 132.037 33.1881C132.194 34.6901 130.938 35.62 128.974 35.62Z" fill="#991427"/>
<path d="M117.038 33.1168C118.079 33.1168 118.923 32.3483 118.923 31.4002C118.923 30.4522 118.079 29.6836 117.038 29.6836C115.998 29.6836 115.154 30.4522 115.154 31.4002C115.154 32.3483 115.998 33.1168 117.038 33.1168Z" fill="#991427"/>
<defs>
<filter id="filter0_ddi_157_820" x="0" y="12" width="176" height="176" filterUnits="userSpaceOnUse" color-interpolation-filters="sRGB">
<feFlood flood-opacity="0" result="BackgroundImageFix"/>
<feColorMatrix in="SourceAlpha" type="matrix" values="0 0 0 0 0 0 0 0 0 0 0 0 0 0 0 0 0 0 127 0" result="hardAlpha"/>
<feOffset dy="4"/>
<feGaussianBlur stdDeviation="6.5"/>
<feComposite in2="hardAlpha" operator="out"/>
<feColorMatrix type="matrix" values="0 0 0 0 0.184314 0 0 0 0 0.533333 0 0 0 0 0.643137 0 0 0 0.25 0"/>
<feBlend mode="normal" in2="BackgroundImageFix" result="effect1_dropShadow_157_820"/>
<feColorMatrix in="SourceAlpha" type="matrix" values="0 0 0 0 0 0 0 0 0 0 0 0 0 0 0 0 0 0 127 0" result="hardAlpha"/>
<feOffset dy="4"/>
<feGaussianBlur stdDeviation="6.5"/>
<feComposite in2="hardAlpha" operator="out"/>
<feColorMatrix type="matrix" values="0 0 0 0 0.184314 0 0 0 0 0.533333 0 0 0 0 0.643137 0 0 0 0.25 0"/>
<feBlend mode="normal" in2="effect1_dropShadow_157_820" result="effect2_dropShadow_157_820"/>
<feBlend mode="normal" in="SourceGraphic" in2="effect2_dropShadow_157_820" result="shape"/>
<feColorMatrix in="SourceAlpha" type="matrix" values="0 0 0 0 0 0 0 0 0 0 0 0 0 0 0 0 0 0 127 0" result="hardAlpha"/>
<feOffset dy="4"/>
<feGaussianBlur stdDeviation="6.5"/>
<feComposite in2="hardAlpha" operator="arithmetic" k2="-1" k3="1"/>
<feColorMatrix type="matrix" values="0 0 0 0 0.184314 0 0 0 0 0.533333 0 0 0 0 0.643137 0 0 0 0.25 0"/>
<feBlend mode="normal" in2="shape" result="effect3_innerShadow_157_820"/>
</filter>
<filter id="filter1_d_157_820" x="22" y="36" width="126" height="126" filterUnits="userSpaceOnUse" color-interpolation-filters="sRGB">
<feFlood flood-opacity="0" result="BackgroundImageFix"/>
<feColorMatrix in="SourceAlpha" type="matrix" values="0 0 0 0 0 0 0 0 0 0 0 0 0 0 0 0 0 0 127 0" result="hardAlpha"/>
<feOffset dy="4"/>
<feGaussianBlur stdDeviation="6.5"/>
<feComposite in2="hardAlpha" operator="out"/>
<feColorMatrix type="matrix" values="0 0 0 0 0.968627 0 0 0 0 0.941176 0 0 0 0 0.831373 0 0 0 0.5 0"/>
<feBlend mode="normal" in2="BackgroundImageFix" result="effect1_dropShadow_157_820"/>
<feBlend mode="normal" in="SourceGraphic" in2="effect1_dropShadow_157_820" result="shape"/>
</filter>
<filter id="filter2_f_157_820" x="75.6558" y="49.918" width="24.6753" height="19.4727" filterUnits="userSpaceOnUse" color-interpolation-filters="sRGB">
<feFlood flood-opacity="0" result="BackgroundImageFix"/>
<feBlend mode="normal" in="SourceGraphic" in2="BackgroundImageFix" result="shape"/>
<feGaussianBlur stdDeviation="2" result="effect1_foregroundBlur_157_820"/>
</filter>
<linearGradient id="paint0_linear_157_820" x1="88" y1="21" x2="88" y2="171" gradientUnits="userSpaceOnUse">
<stop stop-color="#8ED0F4"/>
<stop offset="1" stop-color="#8ED0F4" stop-opacity="0"/>
</linearGradient>
<radialGradient id="paint1_radial_157_820" cx="0" cy="0" r="1" gradientUnits="userSpaceOnUse" gradientTransform="translate(87.5019 75.4384) scale(60.6286 60.6728)">
<stop stop-color="#00B3DC"/>
<stop offset="1" stop-color="#056DB0"/>
</radialGradient>
<linearGradient id="paint2_linear_157_820" x1="52.1982" y1="17.9263" x2="63.6749" y2="161.721" gradientUnits="userSpaceOnUse">
<stop stop-color="#F2F236"/>
<stop offset="1" stop-color="#F2F236" stop-opacity="0"/>
</linearGradient>
<linearGradient id="paint3_linear_157_820" x1="108.256" y1="13.4505" x2="119.733" y2="157.245" gradientUnits="userSpaceOnUse">
<stop stop-color="#F2F236"/>
<stop offset="1" stop-color="#F2F236" stop-opacity="0"/>
</linearGradient>
<linearGradient id="paint4_linear_157_820" x1="112.707" y1="13.0956" x2="124.184" y2="156.89" gradientUnits="userSpaceOnUse">
<stop stop-color="#F2F236"/>
<stop offset="1" stop-color="#F2F236" stop-opacity="0"/>
</linearGradient>
<linearGradient id="paint5_linear_157_820" x1="77.7028" y1="15.8892" x2="89.1795" y2="159.684" gradientUnits="userSpaceOnUse">
<stop stop-color="#F2F236"/>
<stop offset="1" stop-color="#F2F236" stop-opacity="0"/>
</linearGradient>
<linearGradient id="paint6_linear_157_820" x1="97.0468" y1="14.3445" x2="108.524" y2="158.14" gradientUnits="userSpaceOnUse">
<stop stop-color="#F2F236"/>
<stop offset="1" stop-color="#F2F236" stop-opacity="0"/>
</linearGradient>
<linearGradient id="paint7_linear_157_820" x1="68.5117" y1="16.6229" x2="79.9885" y2="160.418" gradientUnits="userSpaceOnUse">
<stop stop-color="#F2F236"/>
<stop offset="1" stop-color="#F2F236" stop-opacity="0"/>
</linearGradient>
<linearGradient id="paint8_linear_157_820" x1="77.4281" y1="159.726" x2="84.932" y2="91.3581" gradientUnits="userSpaceOnUse">
<stop stop-color="#00ACD8"/>
<stop offset="1" stop-color="#0983BD"/>
</linearGradient>
<linearGradient id="paint9_linear_157_820" x1="82.4659" y1="156.788" x2="90.8525" y2="85.3321" gradientUnits="userSpaceOnUse">
<stop stop-color="#056EB1"/>
<stop offset="1" stop-color="#00A9D7" stop-opacity="0.3"/>
</linearGradient>
<linearGradient id="paint10_linear_157_820" x1="121.304" y1="17.474" x2="89.8239" y2="79.5056" gradientUnits="userSpaceOnUse">
<stop stop-color="#E2FFB5"/>
<stop offset="1" stop-color="#FFFFB3" stop-opacity="0"/>
</linearGradient>
</defs>
</svg>
