<svg width="176" height="192" viewBox="0 0 176 192" fill="none" xmlns="http://www.w3.org/2000/svg">
<g filter="url(#filter0_ddi_283_822)">
<rect x="13" y="25" width="150" height="150" rx="20" fill="url(#paint0_linear_283_822)" fill-opacity="0.3" shape-rendering="crispEdges"/>
</g>
<path d="M93.6 52.475C93.6 52.475 93.8738 59.4977 91.2 62.375C87.309 66.562 81.8299 59.7815 76.8 62.375C74.4 63.6125 72 74.75 64.8 82.175C61.4863 85.5923 58.5137 71.3327 55.2 74.75C50.4 79.7 50.5137 87.2423 55.2 92.075C60 97.025 59.7703 96.5912 64.8 97.025C69.5625 97.4358 72 92.075 76.8 97.025C81.6 101.975 75.497 108.728 81.6 111.875C87.1592 114.741 93.6 111.875 96 119.3C98.2768 126.344 91.2 129.2 84 134.15C79.5885 137.183 74.4 146.525 74.4 146.525M37.3003 88.0076C37.3003 88.0076 48 101.975 55.2 104.45C58.8661 105.71 52.1019 110.43 52.8 114.35C53.9172 120.623 60.1579 119.295 62.4 124.25C65.1745 130.381 62.4 141.575 62.4 141.575M108 57.425C108 57.425 105.6 72.275 112.8 74.75C114.788 75.4335 116.118 73.8032 117.6 72.275C120 69.8 122.4 69.8 122.4 69.8M127.2 77.225C127.2 77.225 123.367 81.2401 122.4 82.175C117.469 86.942 110.721 85.6947 108 92.075C105.332 98.3314 105.922 104.362 110.4 109.4C113.232 112.586 118.183 110.455 120 114.35C122.188 119.041 116.71 121.758 115.2 126.725C114.044 130.528 112.8 139.1 112.8 139.1M132 99.5C132 126.838 110.51 149 84 149C57.4903 149 36 126.838 36 99.5C36 72.1619 57.4903 50 84 50C110.51 50 132 72.1619 132 99.5Z" stroke="white" stroke-width="1.2"/>
<g filter="url(#filter1_d_283_822)">
<path d="M85.0217 149C66.1755 149 49.7565 138.552 41.2565 123.125C22.5041 89.1092 48.3696 47.8162 86.1275 49.026C110.147 49.5136 130.436 67.2294 134.307 90.7879C139.386 121.193 115.91 149 85.0217 149Z" fill="url(#paint1_radial_283_822)"/>
<g opacity="0.75">
<path d="M104.861 107.089C102.79 106.573 102.219 109.153 103.39 109.734C104.562 110.325 107.504 112.088 108.095 110.906C108.685 109.734 107.214 107.68 104.861 107.089Z" fill="#056DB1"/>
<path d="M125.431 85.3314C123.426 85.7909 121.027 86.8038 123.079 88.2762C125.141 89.7486 128.365 89.1577 128.665 87.3946C128.955 85.6221 129.255 84.4498 125.431 85.3314Z" fill="#056DB1"/>
<path d="M85.1718 132.674C80.8609 130.086 74.5913 129.148 74.0009 131.793C73.4105 134.437 77.5246 138.554 82.5196 137.964C87.524 137.382 88.1145 134.437 85.1718 132.674Z" fill="#056DB1"/>
<path d="M99.2291 146.947C95.3399 148.101 91.2539 148.795 87.0273 148.954C87.9926 142.83 93.8123 144.762 96.9237 145.606C97.8327 145.859 98.5919 146.356 99.2291 146.947Z" fill="#056DB1"/>
<path d="M57.8442 132.383C59.7466 133.218 61.0774 129.147 58.4346 125.621C55.7918 122.095 54.611 117.678 51.3778 116.796C48.1446 115.915 46.3828 127.384 57.8442 132.383Z" fill="#056DB1"/>
<path d="M44.9116 117.967C43.8714 118.155 43.4403 120.321 45.7925 120.612C48.1448 120.912 48.1448 117.386 44.9116 117.967Z" fill="#056DB1"/>
<path d="M71.0676 105.916C68.9965 105.728 66.9535 106.797 67.244 109.151C67.5345 111.505 70.7677 109.151 72.239 109.151C73.7104 109.151 74.3008 106.206 71.0676 105.916Z" fill="#056DB1"/>
<path d="M91.348 78.5693C89.5674 77.7253 89.2863 81.5142 90.7576 82.0956C92.2289 82.6865 96.3431 80.9139 91.348 78.5693Z" fill="#056DB1"/>
</g>
<path d="M72.5388 97.6829C62.5487 99.446 61.0774 99.7368 51.9682 107.39C45.9423 112.444 39.654 110.813 36.0928 109.125C35.4274 105.861 35.0713 102.475 35.0713 99.0052C35.0713 84.7876 41.0035 71.9486 50.525 62.8516C52.4837 64.0145 54.5079 65.5901 56.0823 67.6908C60.487 73.5711 59.606 75.925 72.5388 82.6868C85.4621 89.4487 82.5288 95.9198 72.5388 97.6829Z" fill="url(#paint2_linear_283_822)"/>
<path d="M130.174 77.5834C120.952 75.6515 114.664 86.0897 108.385 85.33C101.038 84.4484 103.099 73.5695 96.9234 62.0997C93.8308 56.3602 93.6152 52.3837 94.1681 49.8516C110.128 52.7964 123.417 63.3377 130.174 77.5834Z" fill="url(#paint3_linear_283_822)"/>
<path d="M134.981 99.0041C134.981 118.408 123.942 135.223 107.804 143.514C104.121 137.69 110.09 133.366 117.203 128.855C126.022 123.266 117.794 120.912 119.256 111.796C120.727 102.68 115.142 102.09 117.784 94.4462C119.668 88.9879 129.489 94.1648 134.953 97.5785C134.972 98.0475 134.981 98.5258 134.981 99.0041Z" fill="url(#paint4_linear_283_822)"/>
<path d="M88.1142 114.15C82.7724 115.81 79.886 109.442 73.1291 110.914C66.3722 112.387 60.7868 124.438 69.8959 124.147C79.0051 123.856 81.3573 122.675 88.1142 127.383C94.8711 132.091 102.809 128.855 105.161 121.502C107.504 114.15 106.033 108.56 88.1142 114.15Z" fill="url(#paint5_linear_283_822)"/>
<path d="M99.2759 92.0912C96.4644 92.9915 95.7522 94.4452 96.6331 96.2083C97.514 97.9715 101.038 97.6807 102.8 100.325C104.561 102.97 108.975 106.206 110.147 100.325C111.328 94.4452 105.742 90.028 99.2759 92.0912Z" fill="url(#paint6_linear_283_822)"/>
<path opacity="0.5" d="M88.995 76.797C88.4702 80.7171 84.8808 76.797 79.0049 75.6247C73.1289 74.4524 70.7767 70.9167 73.4194 68.5628C76.0622 66.2088 79.5859 64.4457 83.119 66.4995C86.6427 68.5628 89.576 72.3891 88.995 76.797Z" fill="#056DB1"/>
<path d="M82.8194 53.5657C75.4721 53.5657 71.9484 57.6828 65.1915 60.0368C61.1617 61.4342 57.9754 59.8117 56.0542 58.2736C64.2262 52.4403 74.2257 49.0078 85.0311 49.0078C85.4059 49.0078 85.7714 49.0078 86.1369 49.0266C86.6523 51.1461 86.4649 53.5657 82.8194 53.5657Z" fill="url(#paint7_linear_283_822)"/>
<path opacity="0.45" d="M132.601 114.3C128.524 127.007 119.5 137.502 107.804 143.513C105.077 144.911 102.209 146.064 99.229 146.955C95.3398 148.109 91.2537 148.803 87.0272 148.962C86.3618 148.99 85.6964 149 85.0217 149C66.1755 149 49.7565 138.552 41.2565 123.125C38.8761 118.811 37.1143 114.103 36.0928 109.123C35.4274 105.859 35.0713 102.473 35.0713 99.0035C35.0713 92.9638 36.1397 87.1773 38.0983 81.8223C43.7494 98.7127 56.6821 120.508 86.0807 124.55C91.8161 125.338 97.1766 125.441 102.181 125.01C114.458 123.931 124.56 119.636 132.601 114.3Z" fill="url(#paint8_linear_283_822)"/>
<path opacity="0.45" d="M134.981 99.0039C134.981 104.34 134.147 109.48 132.601 114.3C128.524 127.008 119.499 137.502 107.804 143.514C105.077 144.911 102.209 146.065 99.2288 146.956C95.3396 148.109 91.2536 148.803 87.027 148.963C86.3616 148.991 85.6963 149 85.0215 149C66.1753 149 49.7563 138.553 41.2563 123.125C49.8969 126.68 60.1869 129.109 72.3886 129.587C84.2249 130.056 94.0463 128.227 102.181 125.001C119.668 118.08 129.415 104.687 134.7 93.6582C134.841 94.943 134.925 96.256 134.963 97.569C134.972 98.0473 134.981 98.5256 134.981 99.0039Z" fill="url(#paint9_linear_283_822)"/>
<path d="M134.316 90.8175C134.316 90.8175 127.203 64.7456 94.4963 56.1644C74.891 51.0156 61.2835 55.6579 53.5332 60.1971C78.2835 39.9773 116.135 48.0052 130.174 77.5846C133.435 84.4402 134.082 89.8609 134.316 90.8175Z" fill="url(#paint10_linear_283_822)"/>
</g>
<g filter="url(#filter2_f_283_822)">
<ellipse cx="86.4934" cy="66.5079" rx="10.6285" ry="7.82874" transform="rotate(6.91194 86.4934 66.5079)" fill="#F9FAFF" fill-opacity="0.5"/>
</g>
<path d="M118.04 16.873C116.987 16.873 116.096 17.7526 116.096 18.7921V29.5866C116.096 30.6261 116.987 31.5057 118.04 31.5057C119.092 31.5057 119.983 30.6261 119.983 29.5866V18.7921C120.064 17.7526 119.173 16.873 118.04 16.873Z" fill="white"/>
<path d="M144.439 0H91.6403C87.9962 0 85 2.87855 85 6.55669V63.488C85 65.6469 87.5104 66.7663 89.2109 65.407C89.2109 65.407 98.1997 58.1307 101.115 55.572C102.411 54.4525 103.22 53.6529 106.622 53.6529C110.266 53.6529 121.036 53.6529 121.036 53.6529H144.358C148.002 53.6529 150.998 50.7744 150.998 47.0963V6.55669C151.079 2.95851 148.083 0 144.439 0ZM130.349 39.8199H105.731C103.706 39.8199 102.411 38.7804 102.411 37.1013C102.411 36.4616 102.573 35.742 102.977 35.1023L115.286 13.1134C116.015 11.834 116.906 11.1944 117.959 11.1944C119.011 11.1944 119.983 11.914 120.631 13.1134L132.94 35.1023C133.345 35.8219 133.507 36.4616 133.507 37.1013C133.669 38.7804 132.373 39.8199 130.349 39.8199Z" fill="white"/>
<path d="M118.04 37.0217C119.113 37.0217 119.983 36.1625 119.983 35.1026C119.983 34.0428 119.113 33.1836 118.04 33.1836C116.966 33.1836 116.096 34.0428 116.096 35.1026C116.096 36.1625 116.966 37.0217 118.04 37.0217Z" fill="white"/>
<path d="M117.038 19.0938C116.018 19.0938 115.154 19.8805 115.154 20.8104V30.4664C115.154 31.3962 116.018 32.183 117.038 32.183C118.059 32.183 118.923 31.3962 118.923 30.4664V20.8104C119.002 19.8805 118.138 19.0938 117.038 19.0938Z" fill="#991427"/>
<path d="M142.638 4H91.4391C87.9054 4 85 6.57494 85 9.86513V60.7917C85 62.7229 87.4343 63.7242 89.0833 62.5083C89.0833 62.5083 97.7997 55.9994 100.627 53.7106C101.883 52.7092 102.668 51.994 105.966 51.994C109.5 51.994 119.944 51.994 119.944 51.994H142.559C146.093 51.994 148.998 49.419 148.998 46.1288V9.86513C149.077 6.64646 146.172 4 142.638 4ZM128.974 39.62H105.103C103.139 39.62 101.883 38.6901 101.883 37.1881C101.883 36.6159 102.04 35.9721 102.433 35.3999L114.369 15.7303C115.075 14.5859 115.939 14.0136 116.96 14.0136C117.981 14.0136 118.923 14.6574 119.551 15.7303L131.487 35.3999C131.88 36.0437 132.037 36.6159 132.037 37.1881C132.194 38.6901 130.938 39.62 128.974 39.62Z" fill="#991427"/>
<path d="M117.038 37.1168C118.079 37.1168 118.923 36.3483 118.923 35.4002C118.923 34.4522 118.079 33.6836 117.038 33.6836C115.998 33.6836 115.154 34.4522 115.154 35.4002C115.154 36.3483 115.998 37.1168 117.038 37.1168Z" fill="#991427"/>
<defs>
<filter id="filter0_ddi_283_822" x="0" y="16" width="176" height="176" filterUnits="userSpaceOnUse" color-interpolation-filters="sRGB">
<feFlood flood-opacity="0" result="BackgroundImageFix"/>
<feColorMatrix in="SourceAlpha" type="matrix" values="0 0 0 0 0 0 0 0 0 0 0 0 0 0 0 0 0 0 127 0" result="hardAlpha"/>
<feOffset dy="4"/>
<feGaussianBlur stdDeviation="6.5"/>
<feComposite in2="hardAlpha" operator="out"/>
<feColorMatrix type="matrix" values="0 0 0 0 0.184314 0 0 0 0 0.533333 0 0 0 0 0.643137 0 0 0 0.25 0"/>
<feBlend mode="normal" in2="BackgroundImageFix" result="effect1_dropShadow_283_822"/>
<feColorMatrix in="SourceAlpha" type="matrix" values="0 0 0 0 0 0 0 0 0 0 0 0 0 0 0 0 0 0 127 0" result="hardAlpha"/>
<feOffset dy="4"/>
<feGaussianBlur stdDeviation="6.5"/>
<feComposite in2="hardAlpha" operator="out"/>
<feColorMatrix type="matrix" values="0 0 0 0 0.184314 0 0 0 0 0.533333 0 0 0 0 0.643137 0 0 0 0.25 0"/>
<feBlend mode="normal" in2="effect1_dropShadow_283_822" result="effect2_dropShadow_283_822"/>
<feBlend mode="normal" in="SourceGraphic" in2="effect2_dropShadow_283_822" result="shape"/>
<feColorMatrix in="SourceAlpha" type="matrix" values="0 0 0 0 0 0 0 0 0 0 0 0 0 0 0 0 0 0 127 0" result="hardAlpha"/>
<feOffset dy="4"/>
<feGaussianBlur stdDeviation="6.5"/>
<feComposite in2="hardAlpha" operator="arithmetic" k2="-1" k3="1"/>
<feColorMatrix type="matrix" values="0 0 0 0 0.184314 0 0 0 0 0.533333 0 0 0 0 0.643137 0 0 0 0.25 0"/>
<feBlend mode="normal" in2="shape" result="effect3_innerShadow_283_822"/>
</filter>
<filter id="filter1_d_283_822" x="22" y="40" width="126" height="126" filterUnits="userSpaceOnUse" color-interpolation-filters="sRGB">
<feFlood flood-opacity="0" result="BackgroundImageFix"/>
<feColorMatrix in="SourceAlpha" type="matrix" values="0 0 0 0 0 0 0 0 0 0 0 0 0 0 0 0 0 0 127 0" result="hardAlpha"/>
<feOffset dy="4"/>
<feGaussianBlur stdDeviation="6.5"/>
<feComposite in2="hardAlpha" operator="out"/>
<feColorMatrix type="matrix" values="0 0 0 0 0.968627 0 0 0 0 0.941176 0 0 0 0 0.831373 0 0 0 0.5 0"/>
<feBlend mode="normal" in2="BackgroundImageFix" result="effect1_dropShadow_283_822"/>
<feBlend mode="normal" in="SourceGraphic" in2="effect1_dropShadow_283_822" result="shape"/>
</filter>
<filter id="filter2_f_283_822" x="71.8994" y="54.6309" width="29.188" height="23.7539" filterUnits="userSpaceOnUse" color-interpolation-filters="sRGB">
<feFlood flood-opacity="0" result="BackgroundImageFix"/>
<feBlend mode="normal" in="SourceGraphic" in2="BackgroundImageFix" result="shape"/>
<feGaussianBlur stdDeviation="2" result="effect1_foregroundBlur_283_822"/>
</filter>
<linearGradient id="paint0_linear_283_822" x1="88" y1="25" x2="88" y2="175" gradientUnits="userSpaceOnUse">
<stop stop-color="#8ED0F4"/>
<stop offset="1" stop-color="#8ED0F4" stop-opacity="0"/>
</linearGradient>
<radialGradient id="paint1_radial_283_822" cx="0" cy="0" r="1" gradientUnits="userSpaceOnUse" gradientTransform="translate(87.5019 79.4384) scale(60.6286 60.6728)">
<stop stop-color="#00B3DC"/>
<stop offset="1" stop-color="#056DB0"/>
</radialGradient>
<linearGradient id="paint2_linear_283_822" x1="52.1982" y1="21.9263" x2="63.6749" y2="165.721" gradientUnits="userSpaceOnUse">
<stop stop-color="#F2F236"/>
<stop offset="1" stop-color="#F2F236" stop-opacity="0"/>
</linearGradient>
<linearGradient id="paint3_linear_283_822" x1="108.256" y1="17.4505" x2="119.733" y2="161.245" gradientUnits="userSpaceOnUse">
<stop stop-color="#F2F236"/>
<stop offset="1" stop-color="#F2F236" stop-opacity="0"/>
</linearGradient>
<linearGradient id="paint4_linear_283_822" x1="112.707" y1="17.0956" x2="124.184" y2="160.89" gradientUnits="userSpaceOnUse">
<stop stop-color="#F2F236"/>
<stop offset="1" stop-color="#F2F236" stop-opacity="0"/>
</linearGradient>
<linearGradient id="paint5_linear_283_822" x1="77.7028" y1="19.8892" x2="89.1795" y2="163.684" gradientUnits="userSpaceOnUse">
<stop stop-color="#F2F236"/>
<stop offset="1" stop-color="#F2F236" stop-opacity="0"/>
</linearGradient>
<linearGradient id="paint6_linear_283_822" x1="97.0468" y1="18.3445" x2="108.524" y2="162.14" gradientUnits="userSpaceOnUse">
<stop stop-color="#F2F236"/>
<stop offset="1" stop-color="#F2F236" stop-opacity="0"/>
</linearGradient>
<linearGradient id="paint7_linear_283_822" x1="68.5117" y1="20.6229" x2="79.9885" y2="164.418" gradientUnits="userSpaceOnUse">
<stop stop-color="#F2F236"/>
<stop offset="1" stop-color="#F2F236" stop-opacity="0"/>
</linearGradient>
<linearGradient id="paint8_linear_283_822" x1="77.4281" y1="163.726" x2="84.932" y2="95.3581" gradientUnits="userSpaceOnUse">
<stop stop-color="#00ACD8"/>
<stop offset="1" stop-color="#0983BD"/>
</linearGradient>
<linearGradient id="paint9_linear_283_822" x1="82.4659" y1="160.788" x2="90.8525" y2="89.3321" gradientUnits="userSpaceOnUse">
<stop stop-color="#056EB1"/>
<stop offset="1" stop-color="#00A9D7" stop-opacity="0.3"/>
</linearGradient>
<linearGradient id="paint10_linear_283_822" x1="121.304" y1="21.474" x2="89.8239" y2="83.5056" gradientUnits="userSpaceOnUse">
<stop stop-color="#E2FFB5"/>
<stop offset="1" stop-color="#FFFFB3" stop-opacity="0"/>
</linearGradient>
</defs>
</svg>
