<svg width="129" height="149" viewBox="0 0 129 149" fill="none" xmlns="http://www.w3.org/2000/svg">
<g filter="url(#filter0_d_325_850)">
<path d="M68.3183 131.178C49.8959 133.127 32.7574 124.69 22.8408 110.603C0.965098 79.5441 21.9455 36.8106 58.9804 34.079C82.5104 32.0678 104.19 47.1554 110.428 69.6091C118.562 98.5794 98.5123 127.983 68.3183 131.178Z" fill="url(#paint0_radial_325_850)"/>
<g opacity="0.75">
<path d="M83.3444 88.4667C81.2661 88.1806 80.976 90.7416 82.1817 91.1846C83.3884 91.6366 86.4486 93.0426 86.9026 91.8352C87.3576 90.6369 85.7053 88.7966 83.3444 88.4667Z" fill="#056DB1"/>
<path d="M101.185 65.2324C99.2726 65.8856 97.033 67.1163 99.1927 68.3324C101.361 69.5475 104.451 68.6409 104.561 66.8995C104.66 65.1499 104.831 63.9817 101.185 65.2324Z" fill="#056DB1"/>
<path d="M66.7647 115.322C62.281 113.257 56.0546 112.996 55.7531 115.622C55.4516 118.249 59.9023 121.818 64.7234 120.728C69.5547 119.646 69.8249 116.728 66.7647 115.322Z" fill="#056DB1"/>
<path d="M81.9922 127.714C78.3107 129.235 74.3889 130.331 70.274 130.923C70.5793 124.882 76.4695 126.154 79.5988 126.651C80.5138 126.803 81.3077 127.206 81.9922 127.714Z" fill="#056DB1"/>
<path d="M40.0212 117.867C41.9678 118.48 42.8445 114.394 39.8936 111.246C36.9428 108.099 35.3282 103.936 32.0759 103.415C28.8235 102.894 28.2966 114.203 40.0212 117.867Z" fill="#056DB1"/>
<path d="M25.8771 105.219C24.8798 105.508 24.6842 107.654 27.0138 107.693C29.3445 107.741 28.977 104.32 25.8771 105.219Z" fill="#056DB1"/>
<path d="M50.1887 90.8232C48.1447 90.8555 46.259 92.1039 46.7883 94.3575C47.3176 96.611 50.2328 93.993 51.671 93.8408C53.1093 93.6887 53.3795 90.7708 50.1887 90.8232Z" fill="#056DB1"/>
<path d="M67.1631 62.1958C65.3346 61.5612 65.4546 65.2658 66.9535 65.6777C68.4533 66.0987 72.2902 63.9537 67.1631 62.1958Z" fill="#056DB1"/>
</g>
<path d="M50.7675 82.6842C41.1859 85.4278 39.778 85.862 31.6712 94.2281C26.3076 99.7552 19.9907 98.8225 16.3336 97.5532C15.3431 94.4559 14.6421 91.2084 14.2805 87.8421C12.7988 74.0496 17.2596 60.981 25.6189 51.1712C27.6547 52.0968 29.7976 53.4159 31.5555 55.291C36.4739 60.5398 35.8581 62.9145 49.2047 68.1365C62.5421 73.3595 60.3492 79.9405 50.7675 82.6842Z" fill="url(#paint1_linear_325_850)"/>
<path d="M105.011 57.2263C95.7958 56.3059 90.7367 67.0823 84.5198 66.9948C77.2459 66.8995 78.1275 56.1326 70.8952 45.6446C67.274 40.3965 66.6489 36.5612 66.9255 34.0476C82.8332 35.2537 96.9218 44.1053 105.011 57.2263Z" fill="url(#paint2_linear_325_850)"/>
<path d="M111.944 77.5083C113.966 96.332 104.927 113.786 90.0161 123.498C85.8089 118.229 91.1938 113.418 97.6767 108.306C105.715 101.971 97.426 100.539 97.9051 91.5444C98.3933 82.549 92.8719 82.5535 94.6587 74.8653C95.9312 69.3755 106.071 73.3818 111.768 76.1283C111.835 76.5813 111.894 77.0443 111.944 77.5083Z" fill="url(#paint3_linear_325_850)"/>
<path d="M67.7083 97.0485C62.6597 99.2114 59.1745 93.3324 52.723 95.4596C46.2716 97.5868 42.0676 109.855 50.9416 108.631C59.8156 107.407 61.9918 106.017 69.0874 109.886C76.183 113.754 83.605 109.794 85.1381 102.418C86.6621 95.0431 84.6413 89.7729 67.7083 97.0485Z" fill="url(#paint4_linear_325_850)"/>
<path d="M76.3203 74.4962C73.6658 75.6604 73.1211 77.1442 74.166 78.7635C75.2108 80.3829 78.625 79.7364 80.6229 82.1198C82.6207 84.5032 87.2726 87.1854 87.8049 81.3599C88.3463 75.5333 82.4262 71.8259 76.3203 74.4962Z" fill="url(#paint5_linear_325_850)"/>
<path opacity="0.5" d="M64.6767 60.722C64.5722 64.5792 60.6551 61.1475 54.7891 60.618C48.9231 60.0885 46.2553 56.9019 48.5933 54.3449C50.9313 51.788 54.192 49.7132 57.8597 51.3402C61.5192 52.9773 64.7853 56.3859 64.6767 60.722Z" fill="#056DB1"/>
<path d="M56.2193 38.8252C49.0372 39.5851 46.0218 43.9436 39.6622 46.926C35.8687 48.6984 32.585 47.454 30.5467 46.1606C37.927 39.6565 47.3439 35.2924 57.9062 34.1749C58.2727 34.1361 58.6299 34.0983 58.9892 34.0787C59.7139 36.0815 59.7828 38.4482 56.2193 38.8252Z" fill="url(#paint6_linear_325_850)"/>
<path opacity="0.45" d="M111.211 92.5967C108.551 105.346 100.823 116.46 90.0163 123.502C87.4962 125.139 84.8132 126.555 81.9929 127.727C78.3114 129.249 74.3896 130.345 70.2747 130.936C69.6272 131.032 68.9778 131.11 68.3182 131.18C49.8959 133.129 32.7574 124.692 22.8407 110.605C20.0643 106.667 17.8514 102.282 16.3339 97.5562C15.3434 94.459 14.6424 91.2114 14.2808 87.8452C13.6514 81.9861 14.0927 76.2622 15.4492 70.8647C22.7334 86.6656 37.6467 106.472 66.8054 107.352C72.4939 107.523 77.7446 107.069 82.5915 106.133C94.4797 103.817 103.907 98.6051 111.211 92.5967Z" fill="url(#paint7_linear_325_850)"/>
<path opacity="0.45" d="M111.945 77.5097C112.501 82.6864 112.221 87.7584 111.212 92.5947C108.551 105.344 100.823 116.458 90.017 123.499C87.4969 125.137 84.8139 126.553 81.9936 127.725C78.3121 129.247 74.3903 130.342 70.2754 130.934C69.6279 131.03 68.9785 131.108 68.3189 131.178C49.8966 133.127 32.7581 124.69 22.8414 110.603C31.6581 113.158 41.9698 114.45 53.947 113.652C65.566 112.883 74.9759 110.093 82.5912 106.122C98.964 97.5987 107.096 83.5988 111.113 72.3529C111.384 73.5848 111.603 74.8498 111.777 76.1196C111.836 76.5827 111.895 77.0457 111.945 77.5097Z" fill="url(#paint8_linear_325_850)"/>
<path d="M110.441 69.6381C110.441 69.6381 100.771 45.0815 67.9052 40.1396C48.2043 37.1726 35.3866 43.0835 28.2837 48.2885C50.3701 26.1134 88.2072 29.9864 105.013 57.2293C108.915 63.5426 110.112 68.7344 110.441 69.6381Z" fill="url(#paint9_linear_325_850)"/>
</g>
<path d="M59.2686 22.9141L59.21 18.5195L68.6729 18.0801L68.7314 23.0898L59.2686 22.9141Z" fill="black"/>
<path d="M95.1962 31.5533C94.6429 32.0417 93.9968 32.4394 93.2576 32.7466C92.5185 33.0538 91.744 33.2805 90.9344 33.4266C90.1247 33.5728 89.3086 33.6435 88.4862 33.6388C87.662 33.6436 86.8892 33.5831 86.1677 33.4572C84.7727 33.2137 83.533 32.7396 82.4484 32.0348C81.3638 31.3301 80.4713 30.4655 79.771 29.4412C79.0819 28.4089 78.6031 27.2547 78.3345 25.9786C78.0659 24.7025 78.054 23.377 78.299 22.0022C78.4856 20.9543 78.7883 19.9513 79.2069 18.9934C79.6273 18.0259 80.1375 17.1385 80.7376 16.3312C81.3491 15.516 82.043 14.7945 82.8194 14.1667C83.5976 13.5293 84.4435 13.0127 85.3571 12.617C86.2707 12.2213 87.2399 11.9592 88.2647 11.8308C89.2894 11.7023 90.3549 11.7346 91.4613 11.9277C91.8749 11.9999 92.314 12.0964 92.7786 12.2171C93.2448 12.3282 93.7011 12.4673 94.1475 12.6344C94.6052 12.7936 95.0424 12.9839 95.4593 13.2054C95.8761 13.4268 96.2485 13.6752 96.5764 13.9505L95.1909 19.389C94.6881 19.093 94.1541 18.8611 93.5889 18.693C93.035 18.5171 92.4839 18.3812 91.9355 18.2855C91.1659 18.1512 90.423 18.1455 89.7068 18.2683C89.0019 18.3832 88.3599 18.6181 87.7809 18.973C87.2114 19.3297 86.7259 19.8001 86.3243 20.3843C85.9226 20.9684 85.6507 21.6595 85.5085 22.4575C85.4195 22.9574 85.4003 23.4547 85.4511 23.9493C85.5036 24.4343 85.6319 24.883 85.8362 25.2953C86.0518 25.6997 86.342 26.0478 86.7066 26.3394C87.0809 26.6327 87.5374 26.8264 88.0761 26.9204C88.4417 26.9842 88.8254 27.0016 89.2274 26.9726C89.6389 26.9453 90.0048 26.8407 90.3249 26.6586L90.583 25.5438L87.13 24.8817L88.0739 20.5855C89.5159 20.7876 90.9561 20.9993 92.3947 21.2206C93.8349 21.4323 95.2865 21.6361 96.7495 21.832L95.1962 31.5533Z" fill="#0F9D58"/>
<path d="M118.352 30.8864C118.045 31.7205 117.652 32.4923 117.173 33.2019C116.697 33.9023 116.15 34.5254 115.533 35.0713C114.926 35.6204 114.255 36.0848 113.523 36.4644C112.803 36.8382 112.042 37.1092 111.242 37.2775C110.45 37.4491 109.631 37.5121 108.784 37.4665C107.941 37.4118 107.092 37.2305 106.237 36.9227C105.411 36.6248 104.659 36.2347 103.983 35.7525C103.317 35.2736 102.726 34.7288 102.212 34.118C101.701 33.498 101.277 32.8263 100.94 32.1027C100.615 31.3733 100.384 30.6153 100.246 29.8289C100.122 29.0366 100.092 28.2265 100.157 27.3988C100.231 26.5745 100.418 25.7544 100.718 24.9387C101.011 24.1413 101.394 23.3969 101.867 22.7057C102.343 22.0053 102.885 21.3805 103.493 20.8313C104.11 20.2855 104.78 19.8211 105.503 19.4382C106.227 19.0553 106.981 18.7718 107.767 18.5877C108.562 18.4069 109.373 18.336 110.202 18.375C111.03 18.414 111.858 18.5824 112.685 18.8803C114.017 19.3602 115.154 20.0033 116.096 20.8096C117.047 21.6193 117.766 22.548 118.255 23.596C118.756 24.638 119.017 25.7806 119.039 27.0235C119.073 28.2606 118.844 29.5482 118.352 30.8864ZM112.102 29.0395C112.247 28.6454 112.327 28.2435 112.342 27.8339C112.37 27.4184 112.326 27.0288 112.21 26.6653C112.097 26.2925 111.908 25.9595 111.641 25.6662C111.387 25.3671 111.048 25.1414 110.626 24.9891C110.194 24.8335 109.779 24.7724 109.382 24.8058C108.985 24.8391 108.612 24.9486 108.263 25.1342C107.926 25.314 107.626 25.564 107.362 25.8843C107.102 26.1954 106.898 26.5526 106.75 26.9559C106.608 27.3408 106.522 27.7456 106.491 28.1703C106.459 28.595 106.497 29.0028 106.602 29.3939C106.708 29.785 106.887 30.1347 107.138 30.443C107.397 30.7546 107.743 30.9882 108.175 31.1438C108.607 31.2993 109.023 31.3559 109.424 31.3133C109.837 31.265 110.215 31.1417 110.559 30.9437C110.905 30.7364 111.212 30.4681 111.479 30.1386C111.746 29.8092 111.953 29.4428 112.102 29.0395Z" fill="#FBBC04"/>
<defs>
<filter id="filter0_d_325_850" x="0.957031" y="24.9004" width="124.29" height="123.559" filterUnits="userSpaceOnUse" color-interpolation-filters="sRGB">
<feFlood flood-opacity="0" result="BackgroundImageFix"/>
<feColorMatrix in="SourceAlpha" type="matrix" values="0 0 0 0 0 0 0 0 0 0 0 0 0 0 0 0 0 0 127 0" result="hardAlpha"/>
<feOffset dy="4"/>
<feGaussianBlur stdDeviation="6.5"/>
<feComposite in2="hardAlpha" operator="out"/>
<feColorMatrix type="matrix" values="0 0 0 0 0.968627 0 0 0 0 0.941176 0 0 0 0 0.831373 0 0 0 0.5 0"/>
<feBlend mode="normal" in2="BackgroundImageFix" result="effect1_dropShadow_325_850"/>
<feBlend mode="normal" in="SourceGraphic" in2="effect1_dropShadow_325_850" result="shape"/>
</filter>
<radialGradient id="paint0_radial_325_850" cx="0" cy="0" r="1" gradientUnits="userSpaceOnUse" gradientTransform="translate(63.4933 63.4399) rotate(-6.03982) scale(59.596 59.1972)">
<stop stop-color="#00B3DC"/>
<stop offset="1" stop-color="#056DB0"/>
</radialGradient>
<linearGradient id="paint1_linear_325_850" x1="22.9894" y1="11.2967" x2="48.8113" y2="149.676" gradientUnits="userSpaceOnUse">
<stop stop-color="#F2F236"/>
<stop offset="1" stop-color="#F2F236" stop-opacity="0"/>
</linearGradient>
<linearGradient id="paint2_linear_325_850" x1="77.3203" y1="1.15833" x2="103.142" y2="139.538" gradientUnits="userSpaceOnUse">
<stop stop-color="#F2F236"/>
<stop offset="1" stop-color="#F2F236" stop-opacity="0"/>
</linearGradient>
<linearGradient id="paint3_linear_325_850" x1="81.6348" y1="0.352807" x2="107.457" y2="138.732" gradientUnits="userSpaceOnUse">
<stop stop-color="#F2F236"/>
<stop offset="1" stop-color="#F2F236" stop-opacity="0"/>
</linearGradient>
<linearGradient id="paint4_linear_325_850" x1="47.7076" y1="6.68332" x2="73.5296" y2="145.063" gradientUnits="userSpaceOnUse">
<stop stop-color="#F2F236"/>
<stop offset="1" stop-color="#F2F236" stop-opacity="0"/>
</linearGradient>
<linearGradient id="paint5_linear_325_850" x1="66.4557" y1="3.18519" x2="92.2778" y2="141.565" gradientUnits="userSpaceOnUse">
<stop stop-color="#F2F236"/>
<stop offset="1" stop-color="#F2F236" stop-opacity="0"/>
</linearGradient>
<linearGradient id="paint6_linear_325_850" x1="38.8003" y1="8.3473" x2="64.6223" y2="146.727" gradientUnits="userSpaceOnUse">
<stop stop-color="#F2F236"/>
<stop offset="1" stop-color="#F2F236" stop-opacity="0"/>
</linearGradient>
<linearGradient id="paint7_linear_325_850" x1="62.4302" y1="146.252" x2="62.637" y2="79.1519" gradientUnits="userSpaceOnUse">
<stop stop-color="#00ACD8"/>
<stop offset="1" stop-color="#0983BD"/>
</linearGradient>
<linearGradient id="paint8_linear_325_850" x1="67.0492" y1="142.877" x2="67.789" y2="72.6911" gradientUnits="userSpaceOnUse">
<stop stop-color="#056EB1"/>
<stop offset="1" stop-color="#00A9D7" stop-opacity="0.3"/>
</linearGradient>
<linearGradient id="paint9_linear_325_850" x1="90.4944" y1="3.71397" x2="66.5089" y2="67.2679" gradientUnits="userSpaceOnUse">
<stop stop-color="#E2FFB5"/>
<stop offset="1" stop-color="#FFFFB3" stop-opacity="0"/>
</linearGradient>
</defs>
</svg>
