<svg width="13" height="15" viewBox="0 0 13 15" fill="none" xmlns="http://www.w3.org/2000/svg">
<path d="M11.9541 9.74531C11.0897 9.74531 10.2534 9.58879 9.47332 9.30705C9.22735 9.21313 8.95327 9.28357 8.76352 9.49487L7.66017 11.0366C5.67134 9.98009 3.809 7.98444 2.8181 5.69141L4.1885 4.39228C4.37825 4.17315 4.43447 3.86793 4.35716 3.59402C4.09714 2.72533 3.96361 1.79403 3.96361 0.831421C3.96361 0.408813 3.64737 0.0566406 3.26787 0.0566406H0.836294C0.456799 0.0566406 0 0.244466 0 0.831421C0 8.10183 5.4324 14.1436 11.9541 14.1436C12.4531 14.1436 12.6498 13.6505 12.6498 13.2201V10.5201C12.6498 10.0975 12.3336 9.74531 11.9541 9.74531Z" fill="#3E4958"/>
</svg>
