<svg width="20" height="20" viewBox="0 0 20 20" fill="none" xmlns="http://www.w3.org/2000/svg">
<rect x="2.5" y="2.5" width="15" height="15" rx="7.5" stroke="#3E4958" stroke-width="2" stroke-linejoin="round"/>
<path d="M7.5 8.33399C7.5 7.83953 7.64662 7.35618 7.92133 6.94506C8.19603 6.53394 8.58648 6.21351 9.04329 6.02429C9.50011 5.83507 10.0028 5.78556 10.4877 5.88202C10.9727 5.97849 11.4181 6.21659 11.7678 6.56622C12.1174 6.91585 12.3555 7.36131 12.452 7.84626C12.5484 8.33121 12.4989 8.83388 12.3097 9.29069C12.1205 9.74751 11.8 10.138 11.3889 10.4127V10.4127C10.7127 10.8645 10 11.4933 10 12.3066V12.5007" stroke="#3E4958" stroke-width="2" stroke-linejoin="round"/>
<rect x="9.1665" y="13.334" width="1.66667" height="1.66667" rx="0.833333" fill="#3E4958"/>
</svg>
