<svg width="14" height="18" viewBox="0 0 14 18" fill="none" xmlns="http://www.w3.org/2000/svg">
<path fill-rule="evenodd" clip-rule="evenodd" d="M12.6499 7.08105C12.6499 8.33547 12.2534 9.49727 11.5789 10.448L6.95806 17.205C6.89916 17.2912 6.77216 17.2913 6.71307 17.2053L2.03954 10.4039C2.02666 10.3854 2.01388 10.3668 2.00121 10.3481L1.97427 10.3089H1.97483C1.35867 9.38492 0.999512 8.27493 0.999512 7.08105C0.999512 3.86389 3.60754 1.25586 6.82471 1.25586C10.0419 1.25586 12.6499 3.86389 12.6499 7.08105ZM6.82445 10.2522C8.64608 10.2522 10.1228 8.77545 10.1228 6.95382C10.1228 5.13219 8.64608 3.65546 6.82445 3.65546C5.00282 3.65546 3.5261 5.13219 3.5261 6.95382C3.5261 8.77545 5.00282 10.2522 6.82445 10.2522Z" fill="#00A3FF"/>
<path d="M11.5789 10.448L11.5304 10.4136L11.5299 10.4144L11.5789 10.448ZM6.95806 17.205L6.90902 17.1715L6.95806 17.205ZM6.71307 17.2053L6.66411 17.239L6.71307 17.2053ZM2.03954 10.4039L2.0885 10.3702L2.08831 10.3699L2.03954 10.4039ZM2.00121 10.3481L2.05036 10.3147L2.05017 10.3144L2.00121 10.3481ZM1.97427 10.3089V10.2495H1.86137L1.92531 10.3425L1.97427 10.3089ZM1.97483 10.3089V10.3683H2.08585L2.02425 10.2759L1.97483 10.3089ZM11.6273 10.4823C12.3087 9.52193 12.7093 8.34818 12.7093 7.08105H12.5905C12.5905 8.32275 12.1981 9.47261 11.5304 10.4136L11.6273 10.4823ZM7.00709 17.2386L11.6279 10.4815L11.5299 10.4144L6.90902 17.1715L7.00709 17.2386ZM6.66411 17.239C6.74683 17.3594 6.92464 17.3592 7.00709 17.2386L6.90902 17.1715C6.87368 17.2232 6.79748 17.2233 6.76203 17.1717L6.66411 17.239ZM1.99058 10.4375L6.66411 17.239L6.76203 17.1717L2.0885 10.3702L1.99058 10.4375ZM1.95205 10.3814C1.96485 10.4003 1.97776 10.4191 1.99078 10.4378L2.08831 10.3699C2.07555 10.3516 2.0629 10.3332 2.05036 10.3147L1.95205 10.3814ZM1.92531 10.3425L1.95225 10.3817L2.05017 10.3144L2.02323 10.2752L1.92531 10.3425ZM1.97483 10.2495H1.97427V10.3683H1.97483V10.2495ZM0.940108 7.08105C0.940108 8.28702 1.30294 9.40843 1.92541 10.3418L2.02425 10.2759C1.4144 9.36142 1.05892 8.26284 1.05892 7.08105H0.940108ZM6.82471 1.19646C3.57473 1.19646 0.940108 3.83108 0.940108 7.08105H1.05892C1.05892 3.8967 3.64035 1.31526 6.82471 1.31526V1.19646ZM12.7093 7.08105C12.7093 3.83108 10.0747 1.19646 6.82471 1.19646V1.31526C10.0091 1.31526 12.5905 3.8967 12.5905 7.08105H12.7093ZM10.0634 6.95382C10.0634 8.74264 8.61327 10.1928 6.82445 10.1928V10.3116C8.67889 10.3116 10.1822 8.80826 10.1822 6.95382H10.0634ZM6.82445 3.71487C8.61327 3.71487 10.0634 5.165 10.0634 6.95382H10.1822C10.1822 5.09938 8.67889 3.59606 6.82445 3.59606V3.71487ZM3.5855 6.95382C3.5855 5.165 5.03563 3.71487 6.82445 3.71487V3.59606C4.97001 3.59606 3.46669 5.09938 3.46669 6.95382H3.5855ZM6.82445 10.1928C5.03563 10.1928 3.5855 8.74264 3.5855 6.95382H3.46669C3.46669 8.80826 4.97001 10.3116 6.82445 10.3116V10.1928Z" fill="white" fill-opacity="0.1"/>
</svg>
