<svg width="28" height="28" viewBox="0 0 28 28" fill="none" xmlns="http://www.w3.org/2000/svg">
<circle cx="14" cy="14" r="14" fill="#2F88A4"/>
<path d="M23 20.7093C23 20.9745 22.8946 21.2288 22.7071 21.4164C22.5196 21.6039 22.2652 21.7093 22 21.7093H6C5.73478 21.7093 5.48043 21.6039 5.29289 21.4164C5.10536 21.2288 5 20.9745 5 20.7093V10.1993C4.99989 10.0469 5.03462 9.89647 5.10152 9.75956C5.16841 9.62264 5.26572 9.50282 5.386 9.40926L13.386 3.18726C13.5615 3.0507 13.7776 2.97656 14 2.97656C14.2224 2.97656 14.4385 3.0507 14.614 3.18726L22.614 9.40926C22.7343 9.50282 22.8316 9.62264 22.8985 9.75956C22.9654 9.89647 23.0001 10.0469 23 10.1993V20.7093ZM21 19.7093V10.6873L14 5.24326L7 10.6873V19.7093H21ZM9 15.7093H19V17.7093H9V15.7093Z" fill="white"/>
</svg>
