<svg width="89" height="65" viewBox="0 0 89 65" fill="none" xmlns="http://www.w3.org/2000/svg">
<g opacity="0.6" clip-path="url(#clip0_160_823)">
<path d="M34.8927 62.4004H27.0903V62.7357H34.8927V62.4004Z" fill="#8ED0F4"/>
<g filter="url(#filter0_dii_160_823)">
<path d="M48.1534 37.3518C48.1891 32.7893 46.4167 28.3988 43.2247 25.1428C40.0328 21.8869 35.6817 20.0311 31.1255 19.9824C26.5678 20.0311 22.2151 21.8863 19.0205 25.1418C15.8258 28.3973 14.0497 32.7878 14.081 37.3518C14.0678 40.5527 14.9339 43.6956 16.5846 46.4368C18.2353 49.1779 20.6071 51.4117 23.4404 52.8937C23.4404 52.9943 23.4404 53.1117 23.4404 53.229V62.0311C23.4359 62.7902 23.7304 63.5204 24.2602 64.0634C24.7899 64.6064 25.5121 64.9184 26.27 64.9316H27.2076H35.01H35.9308C36.6888 64.9184 37.4109 64.6064 37.9407 64.0634C38.4704 63.5204 38.7649 62.7902 38.7604 62.0311V53.2961C38.7695 53.1845 38.7695 53.0724 38.7604 52.9608C41.6102 51.4781 43.9954 49.2358 45.6529 46.4814C47.3104 43.727 48.1757 40.5676 48.1534 37.3518ZM21.0294 34.5855C20.9932 34.7185 20.9149 34.8361 20.8062 34.9208C20.6975 35.0054 20.5643 35.0525 20.4266 35.0549H20.2592C20.1652 35.0495 20.0733 35.0244 19.9896 34.981C19.906 34.9377 19.8324 34.8772 19.7737 34.8034C19.7203 34.726 19.6838 34.6383 19.6664 34.5459C19.6491 34.4534 19.6514 34.3584 19.6732 34.2669C20.2391 31.964 21.4456 29.869 23.1526 28.2249C24.8596 26.5809 26.9972 25.4553 29.3173 24.9786C29.407 24.9607 29.4997 24.9635 29.5883 24.9868C29.6768 25.0101 29.7589 25.0532 29.8283 25.113C29.8977 25.1728 29.9526 25.2477 29.9888 25.3319C30.025 25.4161 30.0415 25.5074 30.0372 25.599V25.7499C30.0375 25.8928 29.9898 26.0317 29.9017 26.1442C29.8137 26.2568 29.6904 26.3363 29.5517 26.3702C27.5038 26.7994 25.6182 27.7978 24.1109 29.2508C22.6036 30.7038 21.5356 32.5526 21.0294 34.5855ZM37.6721 62.3664C37.6636 62.4702 37.6152 62.5666 37.5371 62.6354C37.4591 62.7041 37.3574 62.74 37.2535 62.7353H24.9808C24.8769 62.74 24.7753 62.7041 24.6972 62.6354C24.6192 62.5666 24.5708 62.4702 24.5622 62.3664V61.679C24.5708 61.5753 24.6192 61.4788 24.6972 61.4101C24.7753 61.3413 24.8769 61.3055 24.9808 61.3102H37.2535C37.3574 61.3055 37.4591 61.3413 37.5371 61.4101C37.6152 61.4788 37.6636 61.5753 37.6721 61.679V62.3664ZM37.6721 59.0132C37.6636 59.117 37.6152 59.2134 37.5371 59.2822C37.4591 59.351 37.3574 59.3868 37.2535 59.3821H24.9808C24.8769 59.3868 24.7753 59.351 24.6972 59.2822C24.6192 59.2134 24.5708 59.117 24.5622 59.0132V58.3594C24.5664 58.3087 24.5806 58.2593 24.604 58.2141C24.6273 58.1689 24.6594 58.1288 24.6983 58.0961C24.7372 58.0633 24.7822 58.0386 24.8307 58.0234C24.8792 58.0082 24.9302 58.0027 24.9808 58.0073H37.2535C37.3041 58.0027 37.3552 58.0082 37.4036 58.0234C37.4521 58.0386 37.4971 58.0633 37.536 58.0961C37.5749 58.1288 37.607 58.1689 37.6304 58.2141C37.6537 58.2593 37.6679 58.3087 37.6721 58.3594V59.0132ZM37.6721 55.6601C37.6636 55.7638 37.6152 55.8603 37.5371 55.929C37.4591 55.9978 37.3574 56.0336 37.2535 56.0289H24.9808C24.8769 56.0336 24.7753 55.9978 24.6972 55.929C24.6192 55.8603 24.5708 55.7638 24.5622 55.6601V55.0062C24.5708 54.9025 24.6192 54.8061 24.6972 54.7373C24.7753 54.6685 24.8769 54.6327 24.9808 54.6374H37.2535C37.3574 54.6327 37.4591 54.6685 37.5371 54.7373C37.6152 54.8061 37.6636 54.9025 37.6721 55.0062V55.6601Z" fill="#8ED0F4"/>
</g>
<g filter="url(#filter1_dii_160_823)">
<path d="M29.8531 4.27364V14.0984C29.8326 14.2769 29.8499 14.4577 29.9041 14.6289C29.9582 14.8002 30.0479 14.9581 30.1673 15.0922C30.2867 15.2263 30.433 15.3336 30.5967 15.4071C30.7604 15.4805 30.9378 15.5185 31.1172 15.5185C31.2966 15.5185 31.474 15.4805 31.6377 15.4071C31.8014 15.3336 31.9477 15.2263 32.0671 15.0922C32.1865 14.9581 32.2762 14.8002 32.3303 14.6289C32.3845 14.4577 32.4019 14.2769 32.3813 14.0984V4.27364C32.4019 4.09518 32.3845 3.91438 32.3303 3.74311C32.2762 3.57185 32.1865 3.41398 32.0671 3.27988C31.9477 3.14578 31.8014 3.03846 31.6377 2.96498C31.474 2.8915 31.2966 2.85352 31.1172 2.85352C30.9378 2.85352 30.7604 2.8915 30.5967 2.96498C30.433 3.03846 30.2867 3.14578 30.1673 3.27988C30.0479 3.41398 29.9582 3.57185 29.9041 3.74311C29.8499 3.91438 29.8326 4.09518 29.8531 4.27364Z" fill="#8ED0F4" fill-opacity="0.3" shape-rendering="crispEdges"/>
</g>
<g filter="url(#filter2_dii_160_823)">
<path d="M1.77487 22.4136C1.62376 22.3415 1.45962 22.3008 1.29237 22.294C1.12511 22.2872 0.958209 22.3143 0.801732 22.3739C0.645256 22.4334 0.502451 22.5241 0.381937 22.6404C0.261424 22.7568 0.165702 22.8963 0.10055 23.0507C-0.0354795 23.3578 -0.0449502 23.7061 0.0741978 24.0201C0.193346 24.3341 0.431475 24.5883 0.736791 24.7273L9.71114 28.7176C9.86158 28.8363 10.0368 28.9195 10.2239 28.9609C10.4109 29.0023 10.6048 29.0009 10.7912 28.9568C10.9776 28.9127 11.1517 28.8271 11.3004 28.7062C11.4492 28.5854 11.5687 28.4325 11.6502 28.2589C11.7317 28.0853 11.773 27.8956 11.7711 27.7038C11.7691 27.512 11.724 27.3231 11.639 27.1512C11.554 26.9794 11.4313 26.8289 11.2802 26.7111C11.129 26.5934 10.9532 26.5113 10.766 26.471L1.77487 22.4136Z" fill="#8ED0F4" fill-opacity="0.3" shape-rendering="crispEdges"/>
</g>
<g filter="url(#filter3_dii_160_823)">
<path d="M60.2753 22.4138L51.234 26.4712C50.9595 26.6282 50.7532 26.882 50.6553 27.1831C50.5574 27.4841 50.575 27.8109 50.7045 28.0997C50.8341 28.3885 51.0664 28.6186 51.3562 28.7453C51.646 28.872 51.9725 28.8861 52.2721 28.7848L61.2464 24.7946C61.4025 24.7307 61.5445 24.6367 61.6644 24.5179C61.7842 24.3991 61.8795 24.2578 61.9448 24.1021C62.0101 23.9464 62.0441 23.7794 62.0449 23.6105C62.0458 23.4417 62.0134 23.2743 61.9496 23.118C61.8859 22.9617 61.792 22.8195 61.6733 22.6995C61.5547 22.5795 61.4136 22.4841 61.2581 22.4187C61.1026 22.3533 60.9358 22.3192 60.7672 22.3184C60.5986 22.3175 60.4314 22.35 60.2753 22.4138Z" fill="#8ED0F4" fill-opacity="0.3" shape-rendering="crispEdges"/>
</g>
</g>
<g clip-path="url(#clip1_160_823)">
<g filter="url(#filter4_dii_160_823)">
<path d="M87.0545 49.3083L86.8294 49.0684L81.0249 54.8419L81.1696 54.9699L82.7775 56.5692C83.7744 57.5448 85.8647 57.049 87.4726 55.4657C89.0805 53.8823 89.5628 51.7872 88.582 50.8116L87.151 49.3722L87.0545 49.3083Z" fill="#8ED0F4" fill-opacity="0.3" shape-rendering="crispEdges"/>
</g>
<path d="M85.3983 47.6914L79.6099 53.449L81.0248 54.8404L86.8132 49.0668L86.6525 48.9069L85.3983 47.6914Z" fill="#8ED0F4"/>
<g filter="url(#filter5_dii_160_823)">
<path d="M54.5106 0.00032727C51.0187 0.0385925 47.5835 0.88446 44.4768 2.47103C41.3702 4.05761 38.6773 6.34137 36.611 9.14171C34.5448 11.9421 33.1619 15.1822 32.5718 18.6058C31.9817 22.0294 32.2004 25.5427 33.2108 28.8677C34.2212 32.1927 35.9955 35.2384 38.3934 37.7637C40.7912 40.289 43.7469 42.2247 47.0266 43.4179C50.3064 44.611 53.8202 45.0287 57.2903 44.6381C60.7603 44.2474 64.0914 43.0591 67.0201 41.167L79.5456 53.4498L85.3341 47.6922L72.8889 35.4894C75.3198 32.1374 76.7705 28.1815 77.0803 24.0599C77.3901 19.9383 76.5469 15.8118 74.6441 12.1375C72.7414 8.46322 69.8533 5.38448 66.2997 3.24227C62.7462 1.10005 58.6658 -0.0220155 54.5106 0.00032727ZM54.8322 38.2562C51.6889 38.2594 48.6153 37.3349 46.0004 35.5999C43.3855 33.8648 41.3468 31.3972 40.1425 28.5092C38.9381 25.6212 38.6221 22.4428 39.2346 19.3761C39.847 16.3095 41.3604 13.4925 43.583 11.2816C45.8057 9.07082 48.6378 7.56556 51.7209 6.95637C54.804 6.34719 57.9995 6.66145 60.9029 7.8594C63.8064 9.05735 66.2873 11.0851 68.0316 13.6861C69.776 16.2871 70.7054 19.3443 70.7022 22.4709C70.7022 26.6463 69.039 30.6517 66.0767 33.6102C63.1144 36.5687 59.0944 38.2393 54.8965 38.2562H54.8322Z" fill="#8ED0F4"/>
</g>
<g filter="url(#filter6_dii_160_823)">
<path d="M57.6139 12.6828L46.4712 26.565C46.2986 26.7893 46.2205 27.0717 46.2535 27.3523C46.2865 27.6329 46.428 27.8897 46.648 28.0683C46.8405 28.2181 47.079 28.2972 47.3233 28.2922C47.4842 28.2941 47.6434 28.259 47.7884 28.1896C47.9335 28.1203 48.0604 28.0186 48.1594 27.8924L59.3343 14.0102C59.4214 13.9012 59.4858 13.7761 59.5241 13.6422C59.5623 13.5083 59.5735 13.3682 59.5571 13.2299C59.5406 13.0917 59.4969 12.9581 59.4283 12.8367C59.3597 12.7154 59.2677 12.6087 59.1575 12.5229C59.0458 12.4321 58.9171 12.3641 58.7789 12.323C58.6407 12.2819 58.4957 12.2683 58.3522 12.2832C58.2087 12.2981 58.0696 12.341 57.9429 12.4096C57.8162 12.4782 57.7044 12.571 57.6139 12.6828Z" fill="#8ED0F4" fill-opacity="0.3" shape-rendering="crispEdges"/>
</g>
<g filter="url(#filter7_dii_160_823)">
<path d="M62.2766 17.3208L51.1821 31.1869C51.0054 31.4098 50.9248 31.6932 50.958 31.975C50.9911 32.2568 51.1353 32.5141 51.3589 32.6903C51.5429 32.8459 51.7767 32.931 52.0182 32.9302C52.1787 32.9297 52.3371 32.8936 52.4817 32.8244C52.6264 32.7552 52.7537 32.6548 52.8543 32.5304L63.9488 18.6482C64.1254 18.4254 64.206 18.142 64.1729 17.8602C64.1397 17.5783 63.9955 17.3211 63.7719 17.1449C63.6623 17.0583 63.5366 16.9942 63.4019 16.9561C63.2673 16.9181 63.1264 16.907 62.9874 16.9233C62.8484 16.9397 62.7141 16.9832 62.5921 17.0514C62.4701 17.1196 62.3628 17.2112 62.2766 17.3208Z" fill="#8ED0F4" fill-opacity="0.3" shape-rendering="crispEdges"/>
</g>
</g>
<defs>
<filter id="filter0_dii_160_823" x="5.08057" y="10.9824" width="58.0732" height="69.9492" filterUnits="userSpaceOnUse" color-interpolation-filters="sRGB">
<feFlood flood-opacity="0" result="BackgroundImageFix"/>
<feColorMatrix in="SourceAlpha" type="matrix" values="0 0 0 0 0 0 0 0 0 0 0 0 0 0 0 0 0 0 127 0" result="hardAlpha"/>
<feOffset dx="6" dy="6"/>
<feGaussianBlur stdDeviation="4"/>
<feComposite in2="hardAlpha" operator="out"/>
<feColorMatrix type="matrix" values="0 0 0 0 0.184314 0 0 0 0 0.533333 0 0 0 0 0.643137 0 0 0 0.3 0"/>
<feBlend mode="normal" in2="BackgroundImageFix" result="effect1_dropShadow_160_823"/>
<feBlend mode="normal" in="SourceGraphic" in2="effect1_dropShadow_160_823" result="shape"/>
<feColorMatrix in="SourceAlpha" type="matrix" values="0 0 0 0 0 0 0 0 0 0 0 0 0 0 0 0 0 0 127 0" result="hardAlpha"/>
<feOffset dx="-10" dy="-11"/>
<feGaussianBlur stdDeviation="4.5"/>
<feComposite in2="hardAlpha" operator="arithmetic" k2="-1" k3="1"/>
<feColorMatrix type="matrix" values="0 0 0 0 0.184314 0 0 0 0 0.533333 0 0 0 0 0.643137 0 0 0 0.5 0"/>
<feBlend mode="normal" in2="shape" result="effect2_innerShadow_160_823"/>
<feColorMatrix in="SourceAlpha" type="matrix" values="0 0 0 0 0 0 0 0 0 0 0 0 0 0 0 0 0 0 127 0" result="hardAlpha"/>
<feOffset dx="15" dy="16"/>
<feGaussianBlur stdDeviation="9.5"/>
<feComposite in2="hardAlpha" operator="arithmetic" k2="-1" k3="1"/>
<feColorMatrix type="matrix" values="0 0 0 0 0.184314 0 0 0 0 0.533333 0 0 0 0 0.643137 0 0 0 0.4 0"/>
<feBlend mode="normal" in2="effect2_innerShadow_160_823" result="effect3_innerShadow_160_823"/>
</filter>
<filter id="filter1_dii_160_823" x="27.8447" y="-5.14648" width="18.5449" height="34.6641" filterUnits="userSpaceOnUse" color-interpolation-filters="sRGB">
<feFlood flood-opacity="0" result="BackgroundImageFix"/>
<feColorMatrix in="SourceAlpha" type="matrix" values="0 0 0 0 0 0 0 0 0 0 0 0 0 0 0 0 0 0 127 0" result="hardAlpha"/>
<feOffset dx="6" dy="6"/>
<feGaussianBlur stdDeviation="4"/>
<feComposite in2="hardAlpha" operator="out"/>
<feColorMatrix type="matrix" values="0 0 0 0 0.556863 0 0 0 0 0.815686 0 0 0 0 0.956863 0 0 0 0.4 0"/>
<feBlend mode="normal" in2="BackgroundImageFix" result="effect1_dropShadow_160_823"/>
<feBlend mode="normal" in="SourceGraphic" in2="effect1_dropShadow_160_823" result="shape"/>
<feColorMatrix in="SourceAlpha" type="matrix" values="0 0 0 0 0 0 0 0 0 0 0 0 0 0 0 0 0 0 127 0" result="hardAlpha"/>
<feOffset dx="-1" dy="-13"/>
<feGaussianBlur stdDeviation="4"/>
<feComposite in2="hardAlpha" operator="arithmetic" k2="-1" k3="1"/>
<feColorMatrix type="matrix" values="0 0 0 0 0.184314 0 0 0 0 0.533333 0 0 0 0 0.643137 0 0 0 1 0"/>
<feBlend mode="normal" in2="shape" result="effect2_innerShadow_160_823"/>
<feColorMatrix in="SourceAlpha" type="matrix" values="0 0 0 0 0 0 0 0 0 0 0 0 0 0 0 0 0 0 127 0" result="hardAlpha"/>
<feOffset dx="-2" dy="5"/>
<feGaussianBlur stdDeviation="6.5"/>
<feComposite in2="hardAlpha" operator="arithmetic" k2="-1" k3="1"/>
<feColorMatrix type="matrix" values="0 0 0 0 0.2 0 0 0 0 0.239216 0 0 0 0 0.258824 0 0 0 1 0"/>
<feBlend mode="normal" in2="effect2_innerShadow_160_823" result="effect3_innerShadow_160_823"/>
</filter>
<filter id="filter2_dii_160_823" x="-2.00879" y="14.293" width="27.7798" height="28.6973" filterUnits="userSpaceOnUse" color-interpolation-filters="sRGB">
<feFlood flood-opacity="0" result="BackgroundImageFix"/>
<feColorMatrix in="SourceAlpha" type="matrix" values="0 0 0 0 0 0 0 0 0 0 0 0 0 0 0 0 0 0 127 0" result="hardAlpha"/>
<feOffset dx="6" dy="6"/>
<feGaussianBlur stdDeviation="4"/>
<feComposite in2="hardAlpha" operator="out"/>
<feColorMatrix type="matrix" values="0 0 0 0 0.556863 0 0 0 0 0.815686 0 0 0 0 0.956863 0 0 0 0.4 0"/>
<feBlend mode="normal" in2="BackgroundImageFix" result="effect1_dropShadow_160_823"/>
<feBlend mode="normal" in="SourceGraphic" in2="effect1_dropShadow_160_823" result="shape"/>
<feColorMatrix in="SourceAlpha" type="matrix" values="0 0 0 0 0 0 0 0 0 0 0 0 0 0 0 0 0 0 127 0" result="hardAlpha"/>
<feOffset dx="-1" dy="-13"/>
<feGaussianBlur stdDeviation="4"/>
<feComposite in2="hardAlpha" operator="arithmetic" k2="-1" k3="1"/>
<feColorMatrix type="matrix" values="0 0 0 0 0.184314 0 0 0 0 0.533333 0 0 0 0 0.643137 0 0 0 1 0"/>
<feBlend mode="normal" in2="shape" result="effect2_innerShadow_160_823"/>
<feColorMatrix in="SourceAlpha" type="matrix" values="0 0 0 0 0 0 0 0 0 0 0 0 0 0 0 0 0 0 127 0" result="hardAlpha"/>
<feOffset dx="-2" dy="5"/>
<feGaussianBlur stdDeviation="6.5"/>
<feComposite in2="hardAlpha" operator="arithmetic" k2="-1" k3="1"/>
<feColorMatrix type="matrix" values="0 0 0 0 0.2 0 0 0 0 0.239216 0 0 0 0 0.258824 0 0 0 1 0"/>
<feBlend mode="normal" in2="effect2_innerShadow_160_823" result="effect3_innerShadow_160_823"/>
</filter>
<filter id="filter3_dii_160_823" x="48.5928" y="14.3184" width="27.4521" height="28.5332" filterUnits="userSpaceOnUse" color-interpolation-filters="sRGB">
<feFlood flood-opacity="0" result="BackgroundImageFix"/>
<feColorMatrix in="SourceAlpha" type="matrix" values="0 0 0 0 0 0 0 0 0 0 0 0 0 0 0 0 0 0 127 0" result="hardAlpha"/>
<feOffset dx="6" dy="6"/>
<feGaussianBlur stdDeviation="4"/>
<feComposite in2="hardAlpha" operator="out"/>
<feColorMatrix type="matrix" values="0 0 0 0 0.556863 0 0 0 0 0.815686 0 0 0 0 0.956863 0 0 0 0.4 0"/>
<feBlend mode="normal" in2="BackgroundImageFix" result="effect1_dropShadow_160_823"/>
<feBlend mode="normal" in="SourceGraphic" in2="effect1_dropShadow_160_823" result="shape"/>
<feColorMatrix in="SourceAlpha" type="matrix" values="0 0 0 0 0 0 0 0 0 0 0 0 0 0 0 0 0 0 127 0" result="hardAlpha"/>
<feOffset dx="-1" dy="-13"/>
<feGaussianBlur stdDeviation="4"/>
<feComposite in2="hardAlpha" operator="arithmetic" k2="-1" k3="1"/>
<feColorMatrix type="matrix" values="0 0 0 0 0.184314 0 0 0 0 0.533333 0 0 0 0 0.643137 0 0 0 1 0"/>
<feBlend mode="normal" in2="shape" result="effect2_innerShadow_160_823"/>
<feColorMatrix in="SourceAlpha" type="matrix" values="0 0 0 0 0 0 0 0 0 0 0 0 0 0 0 0 0 0 127 0" result="hardAlpha"/>
<feOffset dx="-2" dy="5"/>
<feGaussianBlur stdDeviation="6.5"/>
<feComposite in2="hardAlpha" operator="arithmetic" k2="-1" k3="1"/>
<feColorMatrix type="matrix" values="0 0 0 0 0.2 0 0 0 0 0.239216 0 0 0 0 0.258824 0 0 0 1 0"/>
<feBlend mode="normal" in2="effect2_innerShadow_160_823" result="effect3_innerShadow_160_823"/>
</filter>
<filter id="filter4_dii_160_823" x="79.0249" y="41.0684" width="24.064" height="30" filterUnits="userSpaceOnUse" color-interpolation-filters="sRGB">
<feFlood flood-opacity="0" result="BackgroundImageFix"/>
<feColorMatrix in="SourceAlpha" type="matrix" values="0 0 0 0 0 0 0 0 0 0 0 0 0 0 0 0 0 0 127 0" result="hardAlpha"/>
<feOffset dx="6" dy="6"/>
<feGaussianBlur stdDeviation="4"/>
<feComposite in2="hardAlpha" operator="out"/>
<feColorMatrix type="matrix" values="0 0 0 0 0.556863 0 0 0 0 0.815686 0 0 0 0 0.956863 0 0 0 0.4 0"/>
<feBlend mode="normal" in2="BackgroundImageFix" result="effect1_dropShadow_160_823"/>
<feBlend mode="normal" in="SourceGraphic" in2="effect1_dropShadow_160_823" result="shape"/>
<feColorMatrix in="SourceAlpha" type="matrix" values="0 0 0 0 0 0 0 0 0 0 0 0 0 0 0 0 0 0 127 0" result="hardAlpha"/>
<feOffset dx="-1" dy="-13"/>
<feGaussianBlur stdDeviation="4"/>
<feComposite in2="hardAlpha" operator="arithmetic" k2="-1" k3="1"/>
<feColorMatrix type="matrix" values="0 0 0 0 0.184314 0 0 0 0 0.533333 0 0 0 0 0.643137 0 0 0 1 0"/>
<feBlend mode="normal" in2="shape" result="effect2_innerShadow_160_823"/>
<feColorMatrix in="SourceAlpha" type="matrix" values="0 0 0 0 0 0 0 0 0 0 0 0 0 0 0 0 0 0 127 0" result="hardAlpha"/>
<feOffset dx="-2" dy="5"/>
<feGaussianBlur stdDeviation="6.5"/>
<feComposite in2="hardAlpha" operator="arithmetic" k2="-1" k3="1"/>
<feColorMatrix type="matrix" values="0 0 0 0 0.2 0 0 0 0 0.239216 0 0 0 0 0.258824 0 0 0 1 0"/>
<feBlend mode="normal" in2="effect2_innerShadow_160_823" result="effect3_innerShadow_160_823"/>
</filter>
<filter id="filter5_dii_160_823" x="23.248" y="-9" width="77.0859" height="78.4492" filterUnits="userSpaceOnUse" color-interpolation-filters="sRGB">
<feFlood flood-opacity="0" result="BackgroundImageFix"/>
<feColorMatrix in="SourceAlpha" type="matrix" values="0 0 0 0 0 0 0 0 0 0 0 0 0 0 0 0 0 0 127 0" result="hardAlpha"/>
<feOffset dx="6" dy="6"/>
<feGaussianBlur stdDeviation="4"/>
<feComposite in2="hardAlpha" operator="out"/>
<feColorMatrix type="matrix" values="0 0 0 0 0.184314 0 0 0 0 0.533333 0 0 0 0 0.643137 0 0 0 0.3 0"/>
<feBlend mode="normal" in2="BackgroundImageFix" result="effect1_dropShadow_160_823"/>
<feBlend mode="normal" in="SourceGraphic" in2="effect1_dropShadow_160_823" result="shape"/>
<feColorMatrix in="SourceAlpha" type="matrix" values="0 0 0 0 0 0 0 0 0 0 0 0 0 0 0 0 0 0 127 0" result="hardAlpha"/>
<feOffset dx="-10" dy="-11"/>
<feGaussianBlur stdDeviation="4.5"/>
<feComposite in2="hardAlpha" operator="arithmetic" k2="-1" k3="1"/>
<feColorMatrix type="matrix" values="0 0 0 0 0.184314 0 0 0 0 0.533333 0 0 0 0 0.643137 0 0 0 0.5 0"/>
<feBlend mode="normal" in2="shape" result="effect2_innerShadow_160_823"/>
<feColorMatrix in="SourceAlpha" type="matrix" values="0 0 0 0 0 0 0 0 0 0 0 0 0 0 0 0 0 0 127 0" result="hardAlpha"/>
<feOffset dx="15" dy="16"/>
<feGaussianBlur stdDeviation="9.5"/>
<feComposite in2="hardAlpha" operator="arithmetic" k2="-1" k3="1"/>
<feColorMatrix type="matrix" values="0 0 0 0 0.184314 0 0 0 0 0.533333 0 0 0 0 0.643137 0 0 0 0.4 0"/>
<feBlend mode="normal" in2="effect2_innerShadow_160_823" result="effect3_innerShadow_160_823"/>
</filter>
<filter id="filter6_dii_160_823" x="44.2461" y="4.27734" width="29.3184" height="38.0156" filterUnits="userSpaceOnUse" color-interpolation-filters="sRGB">
<feFlood flood-opacity="0" result="BackgroundImageFix"/>
<feColorMatrix in="SourceAlpha" type="matrix" values="0 0 0 0 0 0 0 0 0 0 0 0 0 0 0 0 0 0 127 0" result="hardAlpha"/>
<feOffset dx="6" dy="6"/>
<feGaussianBlur stdDeviation="4"/>
<feComposite in2="hardAlpha" operator="out"/>
<feColorMatrix type="matrix" values="0 0 0 0 0.556863 0 0 0 0 0.815686 0 0 0 0 0.956863 0 0 0 0.4 0"/>
<feBlend mode="normal" in2="BackgroundImageFix" result="effect1_dropShadow_160_823"/>
<feBlend mode="normal" in="SourceGraphic" in2="effect1_dropShadow_160_823" result="shape"/>
<feColorMatrix in="SourceAlpha" type="matrix" values="0 0 0 0 0 0 0 0 0 0 0 0 0 0 0 0 0 0 127 0" result="hardAlpha"/>
<feOffset dx="-1" dy="-13"/>
<feGaussianBlur stdDeviation="4"/>
<feComposite in2="hardAlpha" operator="arithmetic" k2="-1" k3="1"/>
<feColorMatrix type="matrix" values="0 0 0 0 0.184314 0 0 0 0 0.533333 0 0 0 0 0.643137 0 0 0 1 0"/>
<feBlend mode="normal" in2="shape" result="effect2_innerShadow_160_823"/>
<feColorMatrix in="SourceAlpha" type="matrix" values="0 0 0 0 0 0 0 0 0 0 0 0 0 0 0 0 0 0 127 0" result="hardAlpha"/>
<feOffset dx="-2" dy="5"/>
<feGaussianBlur stdDeviation="6.5"/>
<feComposite in2="hardAlpha" operator="arithmetic" k2="-1" k3="1"/>
<feColorMatrix type="matrix" values="0 0 0 0 0.2 0 0 0 0 0.239216 0 0 0 0 0.258824 0 0 0 1 0"/>
<feBlend mode="normal" in2="effect2_innerShadow_160_823" result="effect3_innerShadow_160_823"/>
</filter>
<filter id="filter7_dii_160_823" x="48.9507" y="8.91602" width="29.2295" height="38.0137" filterUnits="userSpaceOnUse" color-interpolation-filters="sRGB">
<feFlood flood-opacity="0" result="BackgroundImageFix"/>
<feColorMatrix in="SourceAlpha" type="matrix" values="0 0 0 0 0 0 0 0 0 0 0 0 0 0 0 0 0 0 127 0" result="hardAlpha"/>
<feOffset dx="6" dy="6"/>
<feGaussianBlur stdDeviation="4"/>
<feComposite in2="hardAlpha" operator="out"/>
<feColorMatrix type="matrix" values="0 0 0 0 0.556863 0 0 0 0 0.815686 0 0 0 0 0.956863 0 0 0 0.4 0"/>
<feBlend mode="normal" in2="BackgroundImageFix" result="effect1_dropShadow_160_823"/>
<feBlend mode="normal" in="SourceGraphic" in2="effect1_dropShadow_160_823" result="shape"/>
<feColorMatrix in="SourceAlpha" type="matrix" values="0 0 0 0 0 0 0 0 0 0 0 0 0 0 0 0 0 0 127 0" result="hardAlpha"/>
<feOffset dx="-1" dy="-13"/>
<feGaussianBlur stdDeviation="4"/>
<feComposite in2="hardAlpha" operator="arithmetic" k2="-1" k3="1"/>
<feColorMatrix type="matrix" values="0 0 0 0 0.184314 0 0 0 0 0.533333 0 0 0 0 0.643137 0 0 0 1 0"/>
<feBlend mode="normal" in2="shape" result="effect2_innerShadow_160_823"/>
<feColorMatrix in="SourceAlpha" type="matrix" values="0 0 0 0 0 0 0 0 0 0 0 0 0 0 0 0 0 0 127 0" result="hardAlpha"/>
<feOffset dx="-2" dy="5"/>
<feGaussianBlur stdDeviation="6.5"/>
<feComposite in2="hardAlpha" operator="arithmetic" k2="-1" k3="1"/>
<feColorMatrix type="matrix" values="0 0 0 0 0.2 0 0 0 0 0.239216 0 0 0 0 0.258824 0 0 0 1 0"/>
<feBlend mode="normal" in2="effect2_innerShadow_160_823" result="effect3_innerShadow_160_823"/>
</filter>
<clipPath id="clip0_160_823">
<rect width="62" height="62" fill="white" transform="translate(0 3)"/>
</clipPath>
<clipPath id="clip1_160_823">
<rect width="57" height="57" fill="white" transform="translate(32)"/>
</clipPath>
</defs>
</svg>
