<svg width="24" height="24" viewBox="0 0 24 24" fill="none" xmlns="http://www.w3.org/2000/svg">
<path fill-rule="evenodd" clip-rule="evenodd" d="M5.85012 1.01247C6.7788 1.01276 7.63079 1.52781 8.06262 2.34997L10.5251 7.09997C10.926 7.87382 10.895 8.8006 10.4432 9.5459C9.99145 10.2912 9.18415 10.7474 8.31262 10.75H3.38762C2.5072 10.7651 1.68376 10.3159 1.21984 9.56748C0.755921 8.81905 0.719941 7.88176 1.12512 7.09997L3.62512 2.34997C4.05904 1.52382 4.91696 1.0081 5.85012 1.01247ZM8.31262 8.89997C8.53203 8.90125 8.73603 8.78739 8.85012 8.59997V8.57497C8.96394 8.40444 8.98279 8.18759 8.90012 7.99997L6.40012 3.24997C6.30628 3.0501 6.1083 2.91973 5.88762 2.91247C5.65338 2.90426 5.43499 3.03044 5.32512 3.23747L2.82512 7.98747C2.72411 8.18242 2.73279 8.41608 2.84801 8.60299C2.96323 8.78989 3.16807 8.90263 3.38762 8.89997H8.31262Z" fill="black"/>
<path fill-rule="evenodd" clip-rule="evenodd" d="M23.1251 5.75C23.1251 8.51142 20.8865 10.75 18.1251 10.75C15.3637 10.75 13.1251 8.51142 13.1251 5.75C13.1251 2.98858 15.3637 0.75 18.1251 0.75C20.8865 0.75 23.1251 2.98858 23.1251 5.75ZM21.2501 5.75C21.2501 4.02411 19.851 2.625 18.1251 2.625C17.2963 2.625 16.5015 2.95424 15.9154 3.54029C15.3294 4.12634 15.0001 4.9212 15.0001 5.75C15.0001 7.47589 16.3992 8.875 18.1251 8.875C19.851 8.875 21.2501 7.47589 21.2501 5.75Z" fill="black"/>
<path fill-rule="evenodd" clip-rule="evenodd" d="M15.6251 13.25H20.6251C22.0058 13.25 23.1251 14.3693 23.1251 15.75V20.75C23.1251 22.1307 22.0058 23.25 20.6251 23.25H15.6251C14.2444 23.25 13.1251 22.1307 13.1251 20.75V15.75C13.1251 14.3693 14.2444 13.25 15.6251 13.25ZM20.6251 21.375C20.9703 21.375 21.2501 21.0952 21.2501 20.75V15.75C21.2501 15.4048 20.9703 15.125 20.6251 15.125H15.6251C15.2799 15.125 15.0001 15.4048 15.0001 15.75V20.75C15.0001 21.0952 15.2799 21.375 15.6251 21.375H20.6251Z" fill="black"/>
<path d="M10.2626 13.45C10.0885 13.2713 9.84961 13.1705 9.60012 13.1705C9.35064 13.1705 9.11173 13.2713 8.93762 13.45L5.85012 16.5375L2.76262 13.45C2.39323 13.1058 1.81761 13.116 1.46059 13.473C1.10358 13.83 1.09342 14.4056 1.43762 14.775L4.50012 17.8625L1.43762 20.95C1.25894 21.1241 1.15816 21.363 1.15816 21.6125C1.15816 21.862 1.25894 22.1009 1.43762 22.275C1.61477 22.4486 1.8521 22.5471 2.10012 22.55C2.34762 22.5446 2.58406 22.4465 2.76262 22.275L5.85012 19.1875L8.93762 22.275C9.11477 22.4486 9.3521 22.5471 9.60012 22.55C9.84762 22.5446 10.0841 22.4465 10.2626 22.275C10.6282 21.909 10.6282 21.316 10.2626 20.95L7.17512 17.8625L10.2626 14.775C10.6282 14.409 10.6282 13.816 10.2626 13.45Z" fill="black"/>
</svg>
